<svg width="64" height="77" viewBox="0 0 64 77" fill="none" xmlns="http://www.w3.org/2000/svg">
<path d="M12.8645 45.9098L14.5288 36.3909H19.5473L19.3095 37.7897H16.0658L15.6327 40.2036H18.6811L18.4434 41.6024H15.395L14.6392 45.9184H12.873L12.8645 45.9098Z" fill="white"/>
<path d="M20.0057 40.3828C20.4983 37.9604 21.0077 36.1521 23.8354 36.1521C26.663 36.1521 26.5442 37.9518 26.196 40.3828L25.9583 41.7389C25.5167 44.2808 24.9987 46.1317 22.0946 46.1317C19.1906 46.1317 19.3264 44.2808 19.768 41.7389L20.0057 40.3828ZM21.4238 42.626C21.2964 43.4107 21.1351 44.6987 22.3494 44.6987C23.5637 44.6987 23.8524 43.3937 24.0137 42.481L24.4298 40.0416C24.5657 39.2824 24.8968 37.5936 23.5806 37.5936C22.1881 37.5936 22.0097 39.2569 21.8909 39.9904L21.4238 42.6346V42.626Z" fill="white"/>
<path d="M33.0486 42.5151C33.0147 42.6943 32.9637 42.8819 32.9128 43.061C32.5222 44.8011 31.7155 46.1317 29.737 46.1317C26.8329 46.1317 26.9688 44.2808 27.4103 41.7389L27.6481 40.3828C28.1406 37.9604 28.6501 36.1521 31.4777 36.1521C33.0571 36.1777 33.8044 36.988 33.6346 38.6171C33.6261 38.856 33.6091 39.1033 33.5496 39.3421H31.8089C31.8429 38.7365 32.0976 37.5936 31.2315 37.5936C29.8389 37.5936 29.6606 39.2569 29.5417 39.9904L29.0746 42.6346C28.9473 43.4193 28.7859 44.7072 30.0002 44.7072C30.9767 44.7072 31.1381 43.1293 31.2739 42.5237H33.0571L33.0486 42.5151Z" fill="white"/>
<path d="M39.7825 36.3823H41.5487L40.3854 43.0183C40.0202 45.1251 39.1626 46.1316 36.8444 46.1316C34.5263 46.1316 33.9998 45.1251 34.3649 43.0183L35.5283 36.3823H37.2945L36.1566 42.8733C35.9953 43.786 35.9019 44.6986 37.1077 44.6986C38.3135 44.6986 38.4748 43.786 38.6361 42.8733L39.774 36.3823H39.7825Z" fill="white"/>
<path d="M46.3716 39.2825C46.5329 38.4295 46.6009 37.5936 45.6243 37.5936C45.0299 37.5936 44.6139 37.8324 44.5035 38.4807C44.3761 39.2057 44.7837 39.4872 45.2762 39.8369C45.7942 40.2036 46.7452 40.9201 47.1613 41.3978C47.6538 41.9949 47.7387 42.5663 47.6029 43.3937C47.2887 45.1934 45.93 46.1402 44.2063 46.1402C42.0834 46.1402 41.523 44.9461 41.8287 43.2487L41.956 42.5493H43.7223L43.6204 43.1037C43.4166 44.0334 43.5864 44.7072 44.4525 44.7072C45.1998 44.7072 45.6159 44.3149 45.7432 43.5899C45.8451 43.0355 45.6583 42.6516 45.2592 42.336C44.461 41.611 43.3996 41.0907 42.8476 40.1354C42.6354 39.7004 42.5589 39.1801 42.6439 38.6769C42.9326 37.0477 43.994 36.1606 45.8706 36.1606C48.6898 36.1606 48.2312 38.3442 48.0784 39.2825H46.3716Z" fill="white"/>
<path d="M19.7 53.9362C19.7085 54.8915 19.5896 56.1112 19.4962 57.3224H19.5216C19.5811 57.0921 19.632 56.8618 19.7 56.64C19.9122 55.8297 20.133 55.0109 20.3963 54.2006L22.0181 49.0061H23.8523L20.4302 58.5251H18.3074L18.2564 54.7635C18.2394 53.7571 18.3583 52.742 18.4093 51.727H18.3838C18.0781 52.742 17.8403 53.7571 17.4752 54.7635L16.1845 58.5251H14.0616L13.9258 49.0061H15.7599L15.6495 54.2006C15.6326 55.0109 15.5731 55.8297 15.4882 56.64C15.4712 56.8703 15.4542 57.1006 15.4288 57.3224H15.4542C15.8109 56.1027 16.1081 54.883 16.4562 53.9362L18.1715 49.0146H19.6405L19.7254 53.9362H19.7Z" fill="white"/>
<path d="M22.3494 58.5336L26.2809 49.0146H28.667L29.151 58.5336H27.2574L27.2065 56.1198H25.1346L24.2514 58.5336H22.3579H22.3494ZM25.661 54.7209H27.181V52.017C27.1725 51.5735 27.2065 51.1385 27.2319 50.695C27.2574 50.4817 27.2659 50.26 27.2829 50.0638H27.2574C27.198 50.2685 27.13 50.4817 27.0791 50.695C26.9517 51.1385 26.8413 51.5735 26.663 52.017L25.661 54.7209Z" fill="white"/>
<path d="M30.1277 58.5336L31.792 49.0146H33.5582L32.1317 57.1433H35.4179L35.1801 58.5421H30.1277V58.5336Z" fill="white"/>
<path d="M36.4453 58.5336L38.1096 49.0146H39.8759L38.4493 57.1433H41.7355L41.4977 58.5421H36.4453V58.5336Z" fill="white"/>
<path d="M14.5543 71.1574H12.7881L14.4524 61.6384H17.2716L17.4499 66.0567C17.4754 66.7817 17.4499 67.5153 17.3904 68.2574H17.4159C17.6707 67.3191 17.849 66.6794 18.0867 66.0567L19.802 61.6384H22.6042L20.9399 71.1574H19.1737L19.7086 68.1635C20.0398 66.27 20.4049 64.3764 20.8465 62.4914H20.821L17.4074 71.1659H16.329L15.9894 62.4914H15.9299C15.7176 64.3849 15.4289 66.2785 15.0978 68.1635L14.5628 71.1574H14.5543Z" fill="white"/>
<path d="M21.8826 71.1574L25.8141 61.6384H28.2002L28.6842 71.1574H26.7906L26.7397 68.7435H24.6678L23.7847 71.1574H21.8911H21.8826ZM25.1942 67.3447H26.7142V64.6408C26.7057 64.1973 26.7397 63.7623 26.7651 63.3187C26.7906 63.1055 26.7991 62.8837 26.8161 62.6876H26.7906C26.7312 62.8923 26.6632 63.1055 26.6123 63.3187C26.4849 63.7623 26.3745 64.1973 26.1962 64.6408L25.1942 67.3447Z" fill="white"/>
<path d="M32.123 67.0547L31.4012 71.1574H29.635L31.2993 61.6384H34.645C36.1734 61.6384 37.2518 62.1758 36.9292 63.9243C36.7508 64.9649 36.3008 66.0567 35.0865 66.2188L35.0695 66.2444C36.097 66.3809 36.2923 67.0547 36.131 67.9673C36.0715 68.3597 35.596 70.6968 35.9781 70.9783L35.9526 71.1574H34.0081C33.8977 70.5518 34.144 69.3833 34.2374 68.7435C34.3393 68.1635 34.4921 67.3618 33.9062 67.1826C33.4477 67.0462 32.9297 67.0547 32.4287 67.0547H32.1145H32.123ZM32.3608 65.6558H33.7534C34.3478 65.6217 34.8657 65.2379 35.0271 64.2826C35.2139 63.2164 34.8148 63.0373 34.144 63.0287H32.8278L32.3608 65.6558Z" fill="white"/>
<path d="M37.3793 71.1574L39.0437 61.6384H40.8099L40.0796 65.8691H40.1051C40.5127 65.1185 41.1156 64.2826 41.6081 63.5832L42.9837 61.6384H44.9792L41.9223 65.7241L43.4252 71.1574H41.4298L40.4193 67.3959L39.6211 68.4279L39.1371 71.1574H37.3708H37.3793Z" fill="white"/>
<path d="M44.3591 71.1574L46.0319 61.6384H51.0079L50.7702 63.0373H47.5604L47.1443 65.4341H50.0993L49.8446 66.8329H46.8896L46.3716 69.7671H49.5814L49.3436 71.1659H44.3676L44.3591 71.1574Z" fill="white"/>
<path d="M51.7553 61.6384H57.6569L57.4191 63.0373H55.3557L53.9291 71.1659H52.1629L53.5895 63.0373H51.5176L51.7553 61.6384Z" fill="white"/>
<path fill-rule="evenodd" clip-rule="evenodd" d="M64 46.094L62.3781 46.9406L62.03 4.78898L6.3516 34.0445L6.75919 76.1534L5.1628 77V76.9743L5.15431 76.9914L0.407589 74.845L0.416081 74.8279L0.399098 74.8364L0 30.9317L58.8372 0V0.00855175L58.8457 0L63.5924 2.15504L64 46.094Z" fill="white"/>
</svg>
